{
  "accessors": [
    {
      "bufferView": 2,
      "componentType": 5126,
      "count": 19836,
      "max": [
        13.008480072021484,
        49.4840202331543,
        -20.304670333862305
      ],
      "min": [
        -4.819540023803711,
        26.862510681152344,
        -50.53330993652344
      ],
      "type": "VEC3"
    },
    {
      "bufferView": 2,
      "byteOffset": 238032,
      "componentType": 5126,
      "count": 19836,
      "type": "VEC3"
    },
    {
      "bufferView": 1,
      "componentType": 5126,
      "count": 19836,
      "type": "VEC2"
    },
    {
      "bufferView": 0,
      "componentType": 5125,
      "count": 57600,
      "type": "SCALAR"
    },
    {
      "bufferView": 2,
      "byteOffset": 476064,
      "componentType": 5126,
      "count": 21782,
      "max": [
        62.83966064453125,
        37.59307098388672,
        40.92770004272461
      ],
      "min": [
        -62.82358932495117,
        -113.30901336669922,
        -67.45130157470703
      ],
      "type": "VEC3"
    },
    {
      "bufferView": 2,
      "byteOffset": 737448,
      "componentType": 5126,
      "count": 21782,
      "type": "VEC3"
    },
    {
      "bufferView": 1,
      "byteOffset": 158688,
      "componentType": 5126,
      "count": 21782,
      "type": "VEC2"
    },
    {
      "bufferView": 0,
      "byteOffset": 230400,
      "componentType": 5125,
      "count": 63312,
      "type": "SCALAR"
    },
    {
      "bufferView": 2,
      "byteOffset": 998832,
      "componentType": 5126,
      "count": 6556,
      "max": [
        7.893360137939453,
        -0.9689000248908997,
        -5.603280067443848
      ],
      "min": [
        -7.904600143432617,
        -3.8414900302886963,
        -21.280710220336914
      ],
      "type": "VEC3"
    },
    {
      "bufferView": 2,
      "byteOffset": 1077504,
      "componentType": 5126,
      "count": 6556,
      "type": "VEC3"
    },
    {
      "bufferView": 1,
      "byteOffset": 332944,
      "componentType": 5126,
      "count": 6556,
      "type": "VEC2"
    },
    {
      "bufferView": 0,
      "byteOffset": 483648,
      "componentType": 5125,
      "count": 20736,
      "type": "SCALAR"
    },
    {
      "bufferView": 2,
      "byteOffset": 1156176,
      "componentType": 5126,
      "count": 847,
      "max": [
        0.995199978351593,
        0.995199978351593,
        -0.7397300004959106
      ],
      "min": [
        -0.995199978351593,
        -0.995199978351593,
        -1.1538599729537964
      ],
      "type": "VEC3"
    },
    {
      "bufferView": 2,
      "byteOffset": 1166340,
      "componentType": 5126,
      "count": 847,
      "type": "VEC3"
    },
    {
      "bufferView": 0,
      "byteOffset": 566592,
      "componentType": 5125,
      "count": 4860,
      "type": "SCALAR"
    }
  ],
  "asset": {
    "generator": "fab-model-conversion",
    "version": "2.0"
  },
  "bufferViews": [
    {
      "buffer": 0,
      "byteLength": 586032,
      "target": 34963
    },
    {
      "buffer": 0,
      "byteLength": 385392,
      "byteOffset": 586032,
      "byteStride": 8,
      "target": 34962
    },
    {
      "buffer": 0,
      "byteLength": 1176504,
      "byteOffset": 971424,
      "byteStride": 12,
      "target": 34962
    }
  ],
  "buffers": [
    {
      "byteLength": 2147928,
      "uri": "scene.bin"
    }
  ],
  "extensionsUsed": [
    "KHR_materials_specular"
  ],
  "materials": [
    {
      "doubleSided": true,
      "name": "Metal",
      "pbrMetallicRoughness": {
        "baseColorFactor": [
          0.800000011920929,
          0.800000011920929,
          0.800000011920929,
          1.0
        ],
        "roughnessFactor": 0.052096480843406054
      }
    },
    {
      "doubleSided": true,
      "extensions": {
        "KHR_materials_specular": {
          "specularFactor": 1
        }
      },
      "name": "_Default_Material",
      "pbrMetallicRoughness": {
        "baseColorFactor": [
          0.6999999284744263,
          0.6788166165351868,
          0.4700339138507843,
          1.0
        ],
        "metallicFactor": 0.0,
        "roughnessFactor": 0.0
      }
    }
  ],
  "meshes": [
    {
      "name": "Cylinder02_Geo_1_0",
      "primitives": [
        {
          "attributes": {
            "NORMAL": 1,
            "POSITION": 0,
            "TEXCOORD_0": 2
          },
          "indices": 3,
          "material": 0,
          "mode": 4
        }
      ]
    },
    {
      "name": "Cylinder01_Geo_0_0",
      "primitives": [
        {
          "attributes": {
            "NORMAL": 5,
            "POSITION": 4,
            "TEXCOORD_0": 6
          },
          "indices": 7,
          "material": 1,
          "mode": 4
        }
      ]
    },
    {
      "name": "Cylinder04_Geo_3_0",
      "primitives": [
        {
          "attributes": {
            "NORMAL": 9,
            "POSITION": 8,
            "TEXCOORD_0": 10
          },
          "indices": 11,
          "material": 0,
          "mode": 4
        }
      ]
    },
    {
      "name": "Cylinder_0",
      "primitives": [
        {
          "attributes": {
            "NORMAL": 13,
            "POSITION": 12
          },
          "indices": 14,
          "material": 0,
          "mode": 4
        }
      ]
    }
  ],
  "nodes": [
    {
      "children": [
        1
      ],
      "matrix": [
        1.0,
        0.0,
        0.0,
        0.0,
        0.0,
        2.220446049250313e-16,
        -1.0,
        0.0,
        0.0,
        1.0,
        2.220446049250313e-16,
        0.0,
        0.0,
        0.0,
        0.0,
        1.0
      ],
      "name": "Sketchfab_model"
    },
    {
      "children": [
        2,
        4,
        6,
        8
      ],
      "name": "Root"
    },
    {
      "children": [
        3
      ],
      "matrix": [
        1.0,
        0.0,
        0.0,
        0.0,
        0.0,
        -0.0,
        1.0,
        0.0,
        0.0,
        -1.0,
        -0.0,
        0.0,
        0.0,
        0.0,
        0.0,
        1.0
      ],
      "name": "Cylinder02_Geo_1"
    },
    {
      "mesh": 0,
      "name": "Cylinder02_Geo_1_0"
    },
    {
      "children": [
        5
      ],
      "matrix": [
        1.0,
        0.0,
        0.0,
        0.0,
        0.0,
        -0.0,
        1.0,
        0.0,
        0.0,
        -1.0,
        -0.0,
        0.0,
        0.0,
        0.0,
        0.0,
        1.0
      ],
      "name": "Cylinder01_Geo_0"
    },
    {
      "mesh": 1,
      "name": "Cylinder01_Geo_0_0"
    },
    {
      "children": [
        7
      ],
      "matrix": [
        1.0,
        0.0,
        0.0,
        0.0,
        0.0,
        -0.0,
        1.0,
        0.0,
        0.0,
        -1.0,
        -0.0,
        0.0,
        0.0,
        0.0,
        -0.24173000000000003,
        1.0
      ],
      "name": "Cylinder04_Geo_3"
    },
    {
      "mesh": 2,
      "name": "Cylinder04_Geo_3_0"
    },
    {
      "children": [
        9
      ],
      "matrix": [
        0.77883,
        -1.06965,
        0.0,
        0.0,
        1.06965,
        0.77883,
        0.0,
        0.0,
        0.0,
        0.0,
        1.32315,
        0.0,
        0.010790000000000003,
        13.38095,
        -2.10174,
        1.0
      ],
      "name": "Cylinder"
    },
    {
      "mesh": 3,
      "name": "Cylinder_0"
    }
  ],
  "scene": 0,
  "scenes": [
    {
      "name": "Sketchfab_Scene",
      "nodes": [
        0
      ]
    }
  ]
}
