{
	"asset":{
		"generator":"Khronos glTF Blender I/O v4.3.47",
		"version":"2.0"
	},
	"scene":0,
	"scenes":[
		{
			"name":"Scene",
			"nodes":[
				2,
				3
			]
		}
	],
	"nodes":[
		{
			"mesh":0,
			"name":"Object_2"
		},
		{
			"children":[
				0
			],
			"name":"Ananas_retopo.obj.cleaner.materialmerger.gles"
		},
		{
			"children":[
				1
			],
			"name":"Sketchfab_model",
			"rotation":[
				-0.70710688829422,
				0,
				0,
				0.7071066498756409
			]
		},
		{
			"mesh":1,
			"name":"Cylinder",
			"rotation":[
				0,
				1,
				0,
				0
			],
			"scale":[
				0.06432521343231201,
				0.06445440649986267,
				0.06432521343231201
			],
			"translation":[
				0,
				-0.9372585415840149,
				-0.007161498069763184
			]
		}
	],
	"materials":[
		{
			"doubleSided":true,
			"emissiveFactor":[
				0.8049242496490479,
				0.8049242496490479,
				0.8049242496490479
			],
			"emissiveTexture":{
				"index":0
			},
			"name":"Ananas_retopo",
			"normalTexture":{
				"index":1,
				"scale":0.595643937587738
			},
			"pbrMetallicRoughness":{
				"baseColorFactor":[
					0.6077651381492615,
					0.6077651381492615,
					0.6077651381492615,
					1
				],
				"baseColorTexture":{
					"index":2
				},
				"metallicFactor":0
			}
		}
	],
	"meshes":[
		{
			"name":"Object_0",
			"primitives":[
				{
					"attributes":{
						"POSITION":0,
						"NORMAL":1,
						"TEXCOORD_0":2
					},
					"indices":3,
					"material":0
				}
			]
		},
		{
			"name":"Cylinder",
			"primitives":[
				{
					"attributes":{
						"POSITION":4,
						"NORMAL":5,
						"TEXCOORD_0":6
					},
					"indices":7
				}
			]
		}
	],
	"textures":[
		{
			"sampler":0,
			"source":0
		},
		{
			"sampler":0,
			"source":1
		},
		{
			"sampler":0,
			"source":0
		}
	],
	"images":[
		{
			"mimeType":"image/jpeg",
			"name":"Ananas_retopo_baseColor",
			"uri":"Ananas_retopo_baseColor.jpg"
		},
		{
			"mimeType":"image/png",
			"name":"Ananas_retopo_normal",
			"uri":"Ananas_retopo_normal.png"
		}
	],
	"accessors":[
		{
			"bufferView":0,
			"componentType":5126,
			"count":34537,
			"max":[
				0.7465277314186096,
				0.8396180868148804,
				3.5733330249786377
			],
			"min":[
				-0.5117087364196777,
				-0.713692307472229,
				0.09536144882440567
			],
			"type":"VEC3"
		},
		{
			"bufferView":1,
			"componentType":5126,
			"count":34537,
			"type":"VEC3"
		},
		{
			"bufferView":2,
			"componentType":5126,
			"count":34537,
			"type":"VEC2"
		},
		{
			"bufferView":3,
			"componentType":5123,
			"count":107709,
			"type":"SCALAR"
		},
		{
			"bufferView":4,
			"componentType":5126,
			"count":192,
			"max":[
				1,
				1,
				1
			],
			"min":[
				-1,
				-1,
				-1
			],
			"type":"VEC3"
		},
		{
			"bufferView":5,
			"componentType":5126,
			"count":192,
			"type":"VEC3"
		},
		{
			"bufferView":6,
			"componentType":5126,
			"count":192,
			"type":"VEC2"
		},
		{
			"bufferView":7,
			"componentType":5123,
			"count":372,
			"type":"SCALAR"
		}
	],
	"bufferViews":[
		{
			"buffer":0,
			"byteLength":414444,
			"byteOffset":0,
			"target":34962
		},
		{
			"buffer":0,
			"byteLength":414444,
			"byteOffset":414444,
			"target":34962
		},
		{
			"buffer":0,
			"byteLength":276296,
			"byteOffset":828888,
			"target":34962
		},
		{
			"buffer":0,
			"byteLength":215418,
			"byteOffset":1105184,
			"target":34963
		},
		{
			"buffer":0,
			"byteLength":2304,
			"byteOffset":1320604,
			"target":34962
		},
		{
			"buffer":0,
			"byteLength":2304,
			"byteOffset":1322908,
			"target":34962
		},
		{
			"buffer":0,
			"byteLength":1536,
			"byteOffset":1325212,
			"target":34962
		},
		{
			"buffer":0,
			"byteLength":744,
			"byteOffset":1326748,
			"target":34963
		}
	],
	"samplers":[
		{
			"magFilter":9729,
			"minFilter":9987
		}
	],
	"buffers":[
		{
			"byteLength":1327492,
			"uri":"pineapple_decimated.bin"
		}
	]
}
