{
  "accessors": [
    {
      "bufferView": 2,
      "componentType": 5126,
      "count": 65532,
      "max": [
        0.7435659766197205,
        0.8430039882659912,
        3.5733330249786377
      ],
      "min": [
        -0.520022988319397,
        -0.7143489718437195,
        0.09906399995088577
      ],
      "type": "VEC3"
    },
    {
      "bufferView": 2,
      "byteOffset": 786384,
      "componentType": 5126,
      "count": 65532,
      "max": [
        0.9999629259109497,
        0.9999682903289795,
        0.9999372959136963
      ],
      "min": [
        -0.9999783039093018,
        -0.9999582767486572,
        -0.9999873638153076
      ],
      "type": "VEC3"
    },
    {
      "bufferView": 3,
      "componentType": 5126,
      "count": 65532,
      "max": [
        0.999990701675415,
        0.9999889135360718,
        0.9999380707740784,
        1.0
      ],
      "min": [
        -0.9997022747993469,
        -0.9999874830245972,
        -0.9999678730964661,
        -1.0
      ],
      "type": "VEC4"
    },
    {
      "bufferView": 1,
      "componentType": 5126,
      "count": 65532,
      "max": [
        1.0,
        1.0
      ],
      "min": [
        0.0,
        0.00012799999967683107
      ],
      "type": "VEC2"
    },
    {
      "bufferView": 0,
      "componentType": 5125,
      "count": 331038,
      "type": "SCALAR"
    },
    {
      "bufferView": 2,
      "byteOffset": 1572768,
      "componentType": 5126,
      "count": 47031,
      "max": [
        0.7434099912643433,
        0.8336390256881714,
        3.5114569664001465
      ],
      "min": [
        -0.5112910270690918,
        -0.7143489718437195,
        0.09916900098323822
      ],
      "type": "VEC3"
    },
    {
      "bufferView": 2,
      "byteOffset": 2137140,
      "componentType": 5126,
      "count": 47031,
      "max": [
        0.9999135732650757,
        0.9999682903289795,
        0.9996873736381531
      ],
      "min": [
        -0.9999657869338989,
        -0.9999744892120361,
        -0.9996827244758606
      ],
      "type": "VEC3"
    },
    {
      "bufferView": 3,
      "byteOffset": 1048512,
      "componentType": 5126,
      "count": 47031,
      "max": [
        0.9999285936355591,
        0.9998735189437866,
        0.9999371767044067,
        1.0
      ],
      "min": [
        -0.9999628067016602,
        -0.9999890327453613,
        -0.9997846484184265,
        -1.0
      ],
      "type": "VEC4"
    },
    {
      "bufferView": 1,
      "byteOffset": 524256,
      "componentType": 5126,
      "count": 47031,
      "max": [
        1.0,
        1.0
      ],
      "min": [
        0.0,
        0.0
      ],
      "type": "VEC2"
    },
    {
      "bufferView": 0,
      "byteOffset": 1324152,
      "componentType": 5125,
      "count": 207522,
      "type": "SCALAR"
    }
  ],
  "asset": {
    "extras": {
      "author": "Lassi Kaukonen (https://sketchfab.com/thesidekick)",
      "license": "CC-BY-4.0 (http://creativecommons.org/licenses/by/4.0/)",
      "source": "https://sketchfab.com/3d-models/pineapple-3debe241ac7e401aa36ae944daa1708e",
      "title": "Pineapple"
    },
    "generator": "Sketchfab-12.68.0",
    "version": "2.0"
  },
  "bufferViews": [
    {
      "buffer": 0,
      "byteLength": 2154240,
      "name": "floatBufferViews",
      "target": 34963
    },
    {
      "buffer": 0,
      "byteLength": 900504,
      "byteOffset": 2154240,
      "byteStride": 8,
      "name": "floatBufferViews",
      "target": 34962
    },
    {
      "buffer": 0,
      "byteLength": 2701512,
      "byteOffset": 3054744,
      "byteStride": 12,
      "name": "floatBufferViews",
      "target": 34962
    },
    {
      "buffer": 0,
      "byteLength": 1801008,
      "byteOffset": 5756256,
      "byteStride": 16,
      "name": "floatBufferViews",
      "target": 34962
    }
  ],
  "buffers": [
    {
      "byteLength": 7557264,
      "uri": "scene.bin"
    }
  ],
  "images": [
    {
      "uri": "textures/Ananas_retopo_baseColor.jpeg"
    },
    {
      "uri": "textures/Ananas_retopo_normal.png"
    }
  ],
  "materials": [
    {
      "doubleSided": true,
      "emissiveFactor": [
        0.8049242424242424,
        0.8049242424242424,
        0.8049242424242424
      ],
      "emissiveTexture": {
        "index": 0
      },
      "name": "Ananas_retopo",
      "normalTexture": {
        "index": 1,
        "scale": 0.5956439393939394
      },
      "pbrMetallicRoughness": {
        "baseColorFactor": [
          0.6077651515151515,
          0.6077651515151515,
          0.6077651515151515,
          1.0
        ],
        "baseColorTexture": {
          "index": 0
        },
        "metallicFactor": 0.0
      }
    }
  ],
  "meshes": [
    {
      "name": "Object_0",
      "primitives": [
        {
          "attributes": {
            "NORMAL": 1,
            "POSITION": 0,
            "TANGENT": 2,
            "TEXCOORD_0": 3
          },
          "indices": 4,
          "material": 0,
          "mode": 4
        }
      ]
    },
    {
      "name": "Object_1",
      "primitives": [
        {
          "attributes": {
            "NORMAL": 6,
            "POSITION": 5,
            "TANGENT": 7,
            "TEXCOORD_0": 8
          },
          "indices": 9,
          "material": 0,
          "mode": 4
        }
      ]
    }
  ],
  "nodes": [
    {
      "children": [
        1
      ],
      "matrix": [
        1.0,
        0.0,
        0.0,
        0.0,
        0.0,
        2.220446049250313e-16,
        -1.0,
        0.0,
        0.0,
        1.0,
        2.220446049250313e-16,
        0.0,
        0.0,
        0.0,
        0.0,
        1.0
      ],
      "name": "Sketchfab_model"
    },
    {
      "children": [
        2,
        3
      ],
      "name": "Ananas_retopo.obj.cleaner.materialmerger.gles"
    },
    {
      "mesh": 0,
      "name": "Object_2"
    },
    {
      "mesh": 1,
      "name": "Object_3"
    }
  ],
  "samplers": [
    {
      "magFilter": 9729,
      "minFilter": 9987,
      "wrapS": 10497,
      "wrapT": 10497
    }
  ],
  "scene": 0,
  "scenes": [
    {
      "name": "Sketchfab_Scene",
      "nodes": [
        0
      ]
    }
  ],
  "textures": [
    {
      "sampler": 0,
      "source": 0
    },
    {
      "sampler": 0,
      "source": 1
    }
  ]
}
